<?xml version="1.0" encoding="utf-8"?>
<!-- Generator: Adobe Illustrator 13.0.0, SVG Export Plug-In . SVG Version: 6.00 Build 14948)  -->
<!DOCTYPE svg PUBLIC "-//W3C//DTD SVG 1.1//EN" "http://www.w3.org/Graphics/SVG/1.1/DTD/svg11.dtd">
<svg version="1.1" id="Layer_1" xmlns="http://www.w3.org/2000/svg" xmlns:xlink="http://www.w3.org/1999/xlink" x="0px" y="0px"
	 width="17.289px" height="32.845px" viewBox="0 0 17.289 32.845" enable-background="new 0 0 17.289 32.845" xml:space="preserve">
<path d="M2.833,13.565c-3.125,17.416,1,19.279,1,19.279S7.958,30.96,4.75,13.565H2.833z"/>
<path d="M0,11.262"/>
<path d="M7.474,9.421c0,2.459-1.655,4.453-3.695,4.453c-2.041,0-3.696-1.993-3.696-4.453L1.021,0h0.866v7.625h1.031L3.437,0H4.25
	l0.502,7.625h1.031V0h0.842L7.474,9.421z"/>
<path d="M11.708,13.566c-3.125,17.416,1,19.279,1,19.279s4.125-1.885,0.917-19.279H11.708z"/>
<path d="M11.708,13.566V0.261c0,0,4.166,0.833,5.146,5.146s0,7.604,0,7.604s-2.83,2.786-2.65,4.042
	C14.228,17.224,11.708,13.566,11.708,13.566z"/>
</svg>
