<?xml version="1.0" encoding="utf-8"?>
<!-- Generator: Adobe Illustrator 13.0.0, SVG Export Plug-In . SVG Version: 6.00 Build 14948)  -->
<!DOCTYPE svg PUBLIC "-//W3C//DTD SVG 1.1//EN" "http://www.w3.org/Graphics/SVG/1.1/DTD/svg11.dtd">
<svg version="1.1" id="Layer_1" xmlns="http://www.w3.org/2000/svg" xmlns:xlink="http://www.w3.org/1999/xlink" x="0px" y="0px"
	 width="36.917px" height="43.705px" viewBox="0 0 36.917 43.705" enable-background="new 0 0 36.917 43.705" xml:space="preserve">
<path d="M9.573,18.999c0-11.04,4.566-9.875,9.157-9.875c4.591,0,9.27-0.208,9.03,9.875c-0.129,5.452-4.439,9.875-9.03,9.875
	C14.139,28.874,9.573,24.453,9.573,18.999z"/>
<path d="M0.917,38.041"/>
<ellipse cx="18.458" cy="39.079" rx="18.458" ry="4.625"/>
<polyline points="14.375,27.557 14.375,29.291 0.136,38.526 36.781,38.526 23,29.374 23,27.59 14.375,27.557 "/>
<path d="M31,12.583c0,1.791-0.653,1.458-1.458,1.458H7.375c-0.805,0-1.458,0.302-1.458-1.458l0,0c0-0.806,0.653-1.458,1.458-1.458
	h22.168C30.347,11.124,31,11.777,31,12.583L31,12.583z"/>
<path d="M19.917,11.833c0,0.713-0.578,1.292-1.292,1.292l0,0c-0.713,0-1.292-0.578-1.292-1.292V0.415
	c0-0.713,0.578-0.291,1.292-0.291l0,0c0.713,0,1.292-0.423,1.292,0.291V11.833z"/>
<path d="M17.333,7.958H15.75v-5.75c0,0-8,0.417-8,9.333c0,2.208,9.917,1.417,9.917,1.417L17.333,7.958z"/>
<path d="M19.917,7.917h1.584v-5.75c0,0,8,0.417,8,9.333c0,2.208-9.877,1.417-9.877,1.417L19.917,7.917z"/>
</svg>
