<?xml version="1.0" encoding="utf-8"?>
<!-- Generator: Adobe Illustrator 13.0.0, SVG Export Plug-In . SVG Version: 6.00 Build 14948)  -->
<!DOCTYPE svg PUBLIC "-//W3C//DTD SVG 1.1//EN" "http://www.w3.org/Graphics/SVG/1.1/DTD/svg11.dtd">
<svg version="1.1" id="Layer_2" xmlns="http://www.w3.org/2000/svg" xmlns:xlink="http://www.w3.org/1999/xlink" x="0px" y="0px"
	 width="30.982px" height="32.405px" viewBox="0 0 30.982 32.405" enable-background="new 0 0 30.982 32.405" xml:space="preserve">
<rect x="3.375" y="26.28" width="21.5" height="6.125"/>
<rect x="6.64" y="5.548" transform="matrix(0.8719 -0.4897 0.4897 0.8719 -7.4733 7.1507)" width="6.583" height="24.625"/>
<circle fill="#FFFFFF" cx="5.125" cy="7.905" r="5.125"/>
<circle cx="4.468" cy="7.647" r="4.295"/>
<circle fill="#FFFFFF" cx="4.425" cy="7.604" r="2.364"/>
<circle cx="4.425" cy="7.604" r="0.938"/>
<rect x="10.25" y="5.033" width="12.75" height="5.123"/>
<rect x="15.926" y="4.057" transform="matrix(0.866 -0.5001 0.5001 0.866 0.316 11.5331)" width="11.501" height="2.239"/>
<rect x="16.764" y="9.771" transform="matrix(0.7264 0.6873 -0.6873 0.7264 13.53 -12.5398)" width="11.499" height="1.903"/>
<rect x="25.027" y="2.328" transform="matrix(-0.5333 -0.8459 0.8459 -0.5333 40.6258 29.1195)" width="6.636" height="2.051"/>
<rect x="24.288" y="11.755" transform="matrix(-0.6858 0.7278 -0.7278 -0.6858 55.8404 1.4558)" width="6.635" height="2.051"/>
</svg>
