<?xml version="1.0" encoding="utf-8"?>
<!-- Generator: Adobe Illustrator 13.0.0, SVG Export Plug-In . SVG Version: 6.00 Build 14948)  -->
<!DOCTYPE svg PUBLIC "-//W3C//DTD SVG 1.1//EN" "http://www.w3.org/Graphics/SVG/1.1/DTD/svg11.dtd">
<svg version="1.1" id="Layer_3" xmlns="http://www.w3.org/2000/svg" xmlns:xlink="http://www.w3.org/1999/xlink" x="0px" y="0px"
	 width="119.001px" height="68.145px" viewBox="0 0 119.001 68.145" enable-background="new 0 0 119.001 68.145"
	 xml:space="preserve">
<rect x="74.834" y="35.167" width="24" height="25"/>
<polyline points="111.918,39 101.667,39 101.667,60.167 119.001,60.167 119.001,49.251 "/>
<rect width="0" height="0.167"/>
<ellipse fill="#FFFFFF" cx="86.426" cy="61.304" rx="7.073" ry="6.841"/>
<ellipse fill="#FFFFFF" cx="109.16" cy="61.304" rx="7.073" ry="6.841"/>
<circle cx="86.426" cy="61.585" r="4.417"/>
<circle cx="94.217" cy="44.585" r="4.417"/>
<circle cx="109.159" cy="61.244" r="4.416"/>
<circle fill="#FFFFFF" cx="82.791" cy="35.626" r="11.375"/>
<circle cx="82.876" cy="35.793" r="9.208"/>
<rect x="82.084" y="28.417" fill="#FFFFFF" width="1.25" height="7.917"/>
<rect x="84.596" y="33.834" transform="matrix(-0.3532 0.9355 -0.9355 -0.3532 149.6682 -29.8067)" fill="#FFFFFF" width="1.082" height="6"/>
<circle fill="#FFFFFF" cx="82.793" cy="35.792" r="1.292"/>
</svg>
