<?xml version="1.0" encoding="utf-8"?>
<!-- Generator: Adobe Illustrator 13.0.0, SVG Export Plug-In . SVG Version: 6.00 Build 14948)  -->
<!DOCTYPE svg PUBLIC "-//W3C//DTD SVG 1.1//EN" "http://www.w3.org/Graphics/SVG/1.1/DTD/svg11.dtd">
<svg version="1.1" id="Layer_2" xmlns="http://www.w3.org/2000/svg" xmlns:xlink="http://www.w3.org/1999/xlink" x="0px" y="0px"
	 width="30.982px" height="32.404px" viewBox="0 0 30.982 32.404" enable-background="new 0 0 30.982 32.404" xml:space="preserve">
<rect x="1.215" y="7.14" width="15.898" height="18.593"/>
<polyline points="25.441,12.536 18.157,12.536 18.157,25.734 30.472,25.734 30.472,18.927 "/>
<path fill="#FFFFFF" d="M8.894,21.49c2.587,0,4.685,2.276,4.685,5.089c0,2.808-2.098,5.086-4.685,5.086
	c-2.588,0-4.687-2.278-4.687-5.086C4.207,23.767,6.305,21.49,8.894,21.49z"/>
<path fill="#FFFFFF" d="M23.954,21.49c2.587,0,4.686,2.276,4.686,5.089c0,2.808-2.099,5.086-4.686,5.086
	c-2.588,0-4.687-2.278-4.687-5.086C19.267,23.767,21.366,21.49,23.954,21.49z"/>
<ellipse cx="8.894" cy="26.786" rx="2.925" ry="3.284"/>
<ellipse cx="14.053" cy="14.145" rx="2.927" ry="3.285"/>
<ellipse cx="23.953" cy="26.534" rx="2.926" ry="3.284"/>
<ellipse fill="#FFFFFF" cx="7.457" cy="8.573" rx="6.563" ry="7.367"/>
<ellipse cx="7.507" cy="8.682" rx="5.313" ry="5.964"/>
<rect x="7.05" y="3.906" fill="#FFFFFF" width="0.721" height="5.126"/>
<polygon fill="#FFFFFF" points="10.542,9.712 10.322,10.367 7.084,8.995 7.303,8.338 "/>
<ellipse fill="#FFFFFF" cx="7.46" cy="8.681" rx="0.744" ry="0.837"/>
</svg>
